# 3ds Max Wavefront OBJ Exporter v0.97b - (c)2007 guruware
# File Created: 19.10.2017 13:05:26

#
# object Tree_7_AO
#

v  0.140306 0.747383 0.977608
v  -0.660740 0.585485 0.497758
v  0.816786 0.866575 0.161158
v  0.107376 1.836447 0.284394
v  -0.656759 0.602104 -0.575089
v  0.161478 0.798003 -0.734194
v  0.424299 1.774822 -0.231353
v  -0.307631 1.742045 0.283779
v  -0.378775 1.538088 -0.505021
v  -0.704340 1.482334 -0.685010
v  -0.527140 1.783908 0.328895
v  0.157274 1.829130 0.620918
v  -0.085562 2.648783 0.132924
v  -0.211294 2.540493 -0.124740
v  -0.185495 2.565703 -0.326084
v  0.427937 1.560361 -0.855676
v  0.773991 1.715826 -0.154991
v  0.236370 2.520640 -0.095354
v  0.162498 2.597817 -0.337925
v  0.005991 2.720518 0.345277
v  -0.494236 2.602963 0.059088
v  -0.412329 2.505394 -0.512897
v  0.451736 2.558118 0.042490
v  0.336697 2.580633 -0.475722
v  -0.044241 3.526312 -0.374778
v  0.364676 -0.053069 0.046875
v  0.033632 -0.052221 -0.349669
v  -0.073734 -0.053069 0.369467
v  -0.352190 -0.053069 -0.128481
v  0.021303 0.905754 -0.262655
v  -0.242826 0.897980 -0.141805
v  -0.163382 0.890641 0.127320
v  0.136797 0.900011 -0.170353
# 33 vertices

vn 0.670970 0.412488 0.616159
vn 0.670970 0.412488 0.616159
vn 0.670970 0.412488 0.616159
vn -0.524579 0.445811 0.725306
vn -0.524579 0.445811 0.725306
vn -0.524579 0.445811 0.725306
vn -0.956366 0.292170 0.000976
vn -0.956366 0.292170 0.000976
vn -0.956366 0.292170 0.000976
vn 0.800412 0.089748 -0.592695
vn 0.800412 0.089748 -0.592695
vn 0.800412 0.089748 -0.592695
vn 0.761031 0.504899 0.407319
vn 0.761031 0.504899 0.407319
vn 0.761031 0.504899 0.407319
vn -0.045868 0.195258 0.979679
vn -0.045868 0.195258 0.979679
vn -0.045868 0.195258 0.979679
vn -0.220749 0.137842 -0.965541
vn -0.220749 0.137842 -0.965541
vn -0.220749 0.137842 -0.965541
vn 0.183393 0.410474 -0.893240
vn 0.183393 0.410474 -0.893240
vn 0.183393 0.410474 -0.893240
vn -0.958800 0.283779 0.013103
vn -0.958800 0.283779 0.013103
vn -0.958800 0.283779 0.013103
vn -0.383499 0.385921 0.839043
vn -0.383499 0.385921 0.839043
vn -0.383499 0.385921 0.839043
vn -0.850040 0.482085 0.212191
vn -0.850040 0.482085 0.212191
vn -0.850040 0.482085 0.212191
vn -0.913527 0.404883 0.039228
vn -0.913527 0.404883 0.039228
vn -0.913527 0.404883 0.039228
vn -0.163415 0.379908 -0.910476
vn -0.163415 0.379908 -0.910476
vn -0.163415 0.379908 -0.910476
vn 0.730087 0.449567 0.514648
vn 0.730087 0.449567 0.514648
vn 0.730087 0.449567 0.514648
vn 0.620880 0.528590 0.578879
vn 0.620880 0.528590 0.578879
vn 0.620880 0.528590 0.578879
vn -0.892682 0.446883 -0.058438
vn -0.892682 0.446883 -0.058438
vn -0.892682 0.446883 -0.058438
vn 0.766400 0.432921 -0.474564
vn 0.766400 0.432921 -0.474564
vn 0.766400 0.432921 -0.474564
vn 0.826686 0.557737 -0.074302
vn 0.826686 0.557737 -0.074302
vn 0.826686 0.557737 -0.074302
vn -0.070383 0.430957 -0.899624
vn -0.070383 0.430957 -0.899624
vn -0.070383 0.430957 -0.899624
vn 0.130443 -0.948923 0.287279
vn 0.184111 -0.968699 0.166508
vn 0.113480 -0.939444 0.323368
vn -0.008917 -0.959585 0.281278
vn -0.098832 -0.959129 0.265147
vn 0.007232 -0.958819 0.283926
vn 0.085888 -0.995057 0.049840
vn 0.080136 -0.996219 -0.033541
vn 0.102808 -0.918771 0.381170
vn -0.175139 -0.984533 0.004563
vn -0.175139 -0.984533 0.004563
vn -0.175139 -0.984533 0.004563
vn -0.197713 -0.967446 0.157979
vn -0.224432 -0.922031 0.315418
vn -0.202060 -0.962347 0.181826
vn 0.052784 -0.952763 0.299094
vn 0.052784 -0.952763 0.299094
vn 0.052784 -0.952763 0.299094
vn -0.096963 -0.929518 0.355802
vn -0.096963 -0.929518 0.355802
vn -0.096963 -0.929518 0.355802
vn 0.109591 -0.977104 0.182367
vn 0.109591 -0.977104 0.182367
vn 0.109591 -0.977104 0.182367
vn 0.228018 -0.969231 -0.092728
vn 0.228018 -0.969231 -0.092728
vn 0.228018 -0.969231 -0.092728
vn 0.096746 -0.975526 0.197455
vn 0.096746 -0.975526 0.197455
vn 0.096746 -0.975526 0.197455
vn -0.507262 0.556434 0.658078
vn -0.507262 0.556434 0.658078
vn -0.507262 0.556434 0.658078
vn 0.596183 0.555302 0.579832
vn 0.596183 0.555302 0.579832
vn 0.596183 0.555302 0.579832
vn -0.914724 0.355731 -0.191666
vn -0.914724 0.355731 -0.191666
vn -0.914724 0.355731 -0.191666
vn 0.904737 0.384105 -0.184157
vn 0.904737 0.384105 -0.184157
vn 0.904737 0.384105 -0.184157
vn 0.037096 0.120830 -0.991980
vn 0.037096 0.120830 -0.991980
vn 0.037096 0.120830 -0.991980
vn 0.206356 -0.978371 -0.014390
vn 0.206356 -0.978371 -0.014390
vn 0.206356 -0.978371 -0.014390
vn 0.216537 -0.972655 -0.083990
vn 0.216537 -0.972655 -0.083990
vn 0.216537 -0.972655 -0.083990
vn 0.175739 -0.984435 0.001895
vn 0.175739 -0.984435 0.001895
vn 0.175739 -0.984435 0.001895
vn 0.130443 -0.948923 0.287279
vn 0.392107 -0.794905 -0.463010
vn 0.184111 -0.968699 0.166508
vn -0.008917 -0.959585 0.281278
vn -0.129277 -0.957147 0.259146
vn -0.098832 -0.959129 0.265147
vn 0.102808 -0.918771 0.381170
vn 0.099098 -0.441462 0.891791
vn 0.085888 -0.995057 0.049840
vn -0.202060 -0.962347 0.181826
vn -0.169258 -0.985476 0.013744
vn -0.197713 -0.967446 0.157979
vn 0.036810 -0.927556 0.371867
vn 0.036810 -0.927556 0.371867
vn 0.036810 -0.927556 0.371867
vn -0.089288 -0.916975 0.388824
vn -0.089288 -0.916975 0.388824
vn -0.089288 -0.916975 0.388824
vn -0.309127 -0.937963 -0.157052
vn -0.309127 -0.937963 -0.157052
vn -0.309127 -0.937963 -0.157052
vn -0.265157 -0.939220 -0.218077
vn -0.265157 -0.939220 -0.218077
vn -0.265157 -0.939220 -0.218077
vn 0.085988 -0.969478 0.229604
vn 0.085988 -0.969478 0.229604
vn 0.085988 -0.969478 0.229604
vn 0.752859 0.057961 -0.655625
vn 0.672263 0.001760 -0.740310
vn 0.623168 -0.029134 -0.781545
vn -0.496178 0.072203 -0.865214
vn -0.481266 0.065144 -0.874151
vn -0.439121 0.045491 -0.897276
vn -0.867829 0.106592 0.485295
vn -0.889524 0.083342 0.449222
vn -0.934266 0.025108 0.355692
vn 0.594615 0.292774 0.748810
vn 0.643306 0.264776 0.718367
vn 0.679337 0.242268 0.692681
vn 0.752859 0.057961 -0.655625
vn 0.765959 0.067925 -0.639291
vn 0.672263 0.001760 -0.740310
vn -0.481266 0.065144 -0.874151
vn -0.416657 0.035186 -0.908383
vn -0.439121 0.045491 -0.897276
vn -0.889524 0.083342 0.449222
vn -0.959056 -0.018591 0.282605
vn -0.934266 0.025108 0.355692
vn 0.594615 0.292774 0.748810
vn 0.563598 0.309331 0.765945
vn 0.643306 0.264776 0.718367
# 162 vertex normals

vt 0.920557 0.893131 0.000000
vt 0.492610 0.610201 0.000000
vt 0.484873 0.657497 0.000000
vt 0.438093 0.630012 0.000000
vt 0.437430 0.656698 0.000000
vt 0.940009 0.321667 0.000000
vt 0.831558 0.624342 0.000000
vt 0.588893 0.503657 0.000000
vt 0.266861 0.819332 0.000000
vt 0.333497 0.783192 0.000000
vt 0.390568 0.447039 0.000000
vt 0.598562 0.500452 0.000000
vt 0.211839 0.818755 0.000000
vt 0.997671 0.323718 0.000000
vt 0.944838 0.363734 0.000000
vt 0.523337 0.661483 0.000000
vt 0.551301 0.702531 0.000000
vt 0.500836 0.703382 0.000000
vt 0.307158 0.815172 0.000000
vt 0.429896 0.445591 0.000000
vt 0.287530 0.783618 0.000000
vt 0.446445 0.448522 0.000000
vt 0.617403 0.503027 0.000000
vt 0.038947 0.789973 0.000000
vt 0.617955 0.854484 0.000000
vt 0.617596 0.821178 0.000000
vt 0.519802 0.883640 0.000000
vt 0.442416 0.667057 0.000000
vt 0.524908 0.892926 0.000000
vt 0.487090 0.665723 0.000000
vt 0.500836 0.882059 0.000000
vt 0.066376 0.741657 0.000000
vt 0.067184 0.793951 0.000000
vt 0.017538 0.772477 0.000000
vt 0.543918 0.877164 0.000000
vt 0.545042 0.755585 0.000000
vt 0.485822 0.888837 0.000000
vt 0.002000 0.772680 0.000000
vt 0.513236 0.863137 0.000000
vt 0.438358 0.901546 0.000000
vt 0.502071 0.855607 0.000000
vt 0.901907 0.740146 0.000000
vt 0.907553 0.765812 0.000000
vt 0.830216 0.812132 0.000000
vt 0.826810 0.776578 0.000000
vt 0.819507 0.833317 0.000000
vt 0.533490 0.871818 0.000000
vt 0.778181 0.813634 0.000000
vt 0.782844 0.870862 0.000000
vt 0.825318 0.848438 0.000000
vt 0.833581 0.867926 0.000000
vt 0.833544 0.848037 0.000000
vt 0.835036 0.802204 0.000000
vt 0.835036 0.776578 0.000000
vt 0.947239 0.312839 0.000000
vt 0.991276 0.289157 0.000000
vt 0.825308 0.855114 0.000000
vt 0.876536 0.865512 0.000000
vt 0.876103 0.852576 0.000000
vt 0.878000 0.800329 0.000000
vt 0.877375 0.788037 0.000000
vt 0.990844 0.308108 0.000000
vt 0.782165 0.848037 0.000000
vt 0.946407 0.288682 0.000000
vt 0.482988 0.678927 0.000000
vt 0.500836 0.749289 0.000000
vt 0.437430 0.714247 0.000000
vt 0.423206 0.721174 0.000000
vt 0.373503 0.695261 0.000000
vt 0.527021 0.714674 0.000000
vt 0.545141 0.711607 0.000000
vt 0.437430 0.865597 0.000000
vt 0.481870 0.899339 0.000000
vt 0.859219 0.765831 0.000000
vt 0.425372 0.669906 0.000000
vt 0.031961 0.733431 0.000000
vt 0.002000 0.695392 0.000000
vt 0.073743 0.727920 0.000000
vt 0.026463 0.666809 0.000000
vt 0.074751 0.680076 0.000000
vt 0.658625 0.837017 0.000000
vt 0.486543 0.687107 0.000000
vt 0.356030 0.817569 0.000000
vt 0.373123 0.679705 0.000000
vt 0.255066 0.772269 0.000000
vt 0.731482 0.871278 0.000000
vt 0.721883 0.848037 0.000000
vt 0.483012 0.956225 0.000000
vt 0.474883 0.988845 0.000000
vt 0.773940 0.848178 0.000000
vt 0.019400 0.743484 0.000000
vt 0.033354 0.805335 0.000000
vt 0.437430 0.956687 0.000000
vt 0.536403 0.854027 0.000000
vt 0.529059 0.861075 0.000000
vt 0.512939 0.872435 0.000000
vt 0.778895 0.611197 0.000000
vt 0.844141 0.610201 0.000000
vt 0.883741 0.881329 0.000000
vt 0.930685 0.879504 0.000000
vt 0.884442 0.891534 0.000000
vt 0.213057 0.782577 0.000000
vt 0.826418 0.803595 0.000000
vt 0.780587 0.786417 0.000000
# 104 texture coords

g Tree_7_AO
s off
f 1/2/1 3/3/2 4/4/3 
f 1/6/4 4/14/5 2/15/6 
f 2/9/7 8/13/8 5/85/9 
f 3/16/10 6/17/11 7/18/12 
f 7/5/13 4/4/14 3/3/15 
f 8/7/16 2/97/17 4/98/18 
f 9/10/19 6/19/20 5/21/21 
f 9/10/22 7/83/23 6/19/24 
f 9/102/25 5/85/26 8/13/27 
f 11/25/28 12/26/29 13/81/30 
f 11/28/31 13/30/32 14/65/33 
f 11/28/34 14/65/35 10/67/36 
f 10/68/37 15/69/38 16/75/39 
f 12/36/40 17/66/41 18/70/42 
f 18/70/43 13/71/44 12/36/45 
f 15/82/46 10/67/47 14/65/48 
f 19/37/49 17/40/50 16/72/51 
f 19/37/52 18/73/53 17/40/54 
f 19/84/55 16/75/56 15/69/57 
s 1
f 7/24/58 10/32/59 16/33/60 
s 2
f 9/1/61 11/99/62 10/100/63 
s 1
f 4/34/64 12/38/65 11/91/66 
s 2
f 4/34/67 17/92/68 12/38/69 
s 4
f 7/24/70 16/33/71 17/92/72 
s off
f 13/27/73 20/29/74 21/31/75 
f 13/27/76 23/35/77 20/29/78 
f 15/39/79 21/31/80 22/41/81 
f 18/47/82 24/94/83 23/35/84 
f 19/95/85 15/39/86 22/41/87 
f 21/42/88 20/43/89 25/74/90 
f 20/86/91 23/87/92 25/90/93 
f 22/45/94 21/103/95 25/104/96 
f 23/44/97 24/46/98 25/48/99 
f 24/88/100 22/89/101 25/93/102 
f 2/76/103 5/77/104 1/78/105 
f 5/77/106 6/79/107 3/80/108 
f 5/77/109 3/80/110 1/78/111 
s 1
f 7/11/112 9/20/113 10/22/114 
s 2
f 9/1/115 8/101/116 11/99/117 
s 1
f 11/8/118 8/12/119 4/23/120 
s 4
f 17/92/121 4/34/122 7/24/123 
s off
f 21/31/124 14/96/125 13/27/126 
f 13/27/127 18/47/128 23/35/129 
f 15/39/130 14/96/131 21/31/132 
f 18/47/133 19/95/134 24/94/135 
f 22/41/136 24/94/137 19/95/138 
s 2
f 26/49/139 30/50/140 33/57/141 
s 4
f 27/51/142 29/52/143 30/58/144 
s 8
f 29/53/145 28/54/146 31/60/147 
s 4
f 28/55/148 33/56/149 32/62/150 
s 2
f 26/49/151 27/63/152 30/50/153 
s 4
f 29/52/154 31/59/155 30/58/156 
s 8
f 28/54/157 32/61/158 31/60/159 
s 4
f 28/55/160 26/64/161 33/56/162 
# 0 polygons - 54 triangles

