{
  "accessors": [
    {
      "bufferView": 2,
      "componentType": 5126,
      "count": 161,
      "max": [
        0.33375000953674316,
        2.5726499557495117,
        0.16286000609397888
      ],
      "min": [
        -0.99840998649597168,
        -0.36879000067710876,
        -0.16286000609397888
      ],
      "type": "VEC3"
    },
    {
      "bufferView": 2,
      "byteOffset": 1932,
      "componentType": 5126,
      "count": 161,
      "max": [
        0.99919205904006958,
        0.99949467182159424,
        0.87923628091812134
      ],
      "min": [
        -0.99908667802810669,
        -0.99983906745910645,
        -0.87923628091812134
      ],
      "type": "VEC3"
    },
    {
      "bufferView": 3,
      "componentType": 5126,
      "count": 161,
      "max": [
        0.99988460540771484,
        0.99919205904006958,
        0.80416369438171387,
        1
      ],
      "min": [
        -0.99950778484344482,
        -0.97927814722061157,
        -0.80839800834655762,
        -1
      ],
      "type": "VEC4"
    },
    {
      "bufferView": 1,
      "componentType": 5126,
      "count": 161,
      "max": [
        0.95670002698898315,
        0.94603002071380615
      ],
      "min": [
        0.037399999797344208,
        0.056290000677108765
      ],
      "type": "VEC2"
    },
    {
      "bufferView": 0,
      "componentType": 5125,
      "count": 630,
      "max": [
        160
      ],
      "min": [
        0
      ],
      "type": "SCALAR"
    }
  ],
  "asset": {
    "extras": {
      "author": "gooddayassets (https://sketchfab.com/gooddayassets)",
      "license": "CC-BY-4.0 (http://creativecommons.org/licenses/by/4.0/)",
      "source": "https://sketchfab.com/models/b93acb7abde6425aaf869f9b5d039959",
      "title": "Axe"
    },
    "generator": "Sketchfab-3.18.7",
    "version": "2.0"
  },
  "bufferViews": [
    {
      "buffer": 0,
      "byteLength": 2520,
      "byteOffset": 0,
      "name": "floatBufferViews",
      "target": 34963
    },
    {
      "buffer": 0,
      "byteLength": 1288,
      "byteOffset": 2520,
      "byteStride": 8,
      "name": "floatBufferViews",
      "target": 34962
    },
    {
      "buffer": 0,
      "byteLength": 3864,
      "byteOffset": 3808,
      "byteStride": 12,
      "name": "floatBufferViews",
      "target": 34962
    },
    {
      "buffer": 0,
      "byteLength": 2576,
      "byteOffset": 7672,
      "byteStride": 16,
      "name": "floatBufferViews",
      "target": 34962
    }
  ],
  "buffers": [
    {
      "byteLength": 10248,
      "uri": "scene.bin"
    }
  ],
  "extensionsUsed": [
    "KHR_materials_unlit"
  ],
  "images": [
    {
      "uri": "textures/Material_baseColor.png"
    }
  ],
  "materials": [
    {
      "doubleSided": true,
      "extensions": {
        "KHR_materials_unlit": {}
      },
      "name": "Material",
      "pbrMetallicRoughness": {
        "baseColorFactor": [
          0.41999999999999998,
          0.41999999999999998,
          0.41999999999999998,
          1
        ],
        "baseColorTexture": {
          "index": 0,
          "texCoord": 0
        },
        "metallicFactor": 0,
        "roughnessFactor": 1
      }
    }
  ],
  "meshes": [
    {
      "name": "Plane_0",
      "primitives": [
        {
          "attributes": {
            "NORMAL": 1,
            "POSITION": 0,
            "TANGENT": 2,
            "TEXCOORD_0": 3
          },
          "indices": 4,
          "material": 0,
          "mode": 4
        }
      ]
    }
  ],
  "nodes": [
    {
      "children": [
        1
      ],
      "name": "RootNode (gltf orientation matrix)",
      "rotation": [
        -0.70710678118654746,
        -0,
        -0,
        0.70710678118654757
      ]
    },
    {
      "children": [
        2
      ],
      "name": "RootNode (model correction matrix)"
    },
    {
      "children": [
        3
      ],
      "name": "Root"
    },
    {
      "children": [
        4
      ],
      "matrix": [
        1,
        0.0013200000000000004,
        0,
        0,
        -0,
        0,
        1,
        0,
        0.0013200000000000004,
        -1,
        0,
        0,
        0,
        0,
        0.5,
        1
      ],
      "name": "Plane"
    },
    {
      "mesh": 0,
      "name": "Plane_0"
    }
  ],
  "samplers": [
    {
      "magFilter": 9729,
      "minFilter": 9987,
      "wrapS": 10497,
      "wrapT": 10497
    }
  ],
  "scene": 0,
  "scenes": [
    {
      "name": "OSG_Scene",
      "nodes": [
        0
      ]
    }
  ],
  "textures": [
    {
      "sampler": 0,
      "source": 0
    }
  ]
}

