# 3ds Max Wavefront OBJ Exporter v0.97b - (c)2007 guruware
# File Created: 19.10.2017 12:59:13

#
# object StoneBlocks_1_AO
#

v  -1.045088 -0.026206 -0.070637
v  -0.441755 -0.026206 -1.197362
v  -2.065432 -0.026206 -0.617006
v  -1.462095 -0.026206 -1.743730
v  -1.110031 1.210822 -0.216888
v  -0.576744 1.008136 -1.175861
v  -1.938097 1.210822 -0.660297
v  -1.424940 1.131544 -1.584340
v  -0.737509 1.151136 -1.252158
v  -0.667246 1.142998 -1.027865
v  -0.534056 -0.026206 0.488409
v  0.744032 -0.026206 0.484856
v  -0.537275 -0.026206 -0.669005
v  0.740812 -0.026206 -0.672559
v  -0.436134 1.540338 0.361846
v  0.655880 1.373975 0.372222
v  -0.438745 1.540338 -0.577461
v  0.642796 1.540338 -0.580468
v  0.644941 1.540338 0.191610
v  0.478180 1.540338 0.359304
v  1.294067 0.782861 -0.706034
v  0.996395 0.782861 0.262634
v  1.908646 0.782861 -0.517973
v  1.610975 0.782861 0.450696
v  1.366892 1.683407 -0.602139
v  1.115000 1.683407 0.217566
v  1.564274 1.683407 0.354829
v  1.726490 1.595236 -0.574360
v  1.753101 1.683407 -0.286274
v  0.979328 -0.026206 0.469030
v  2.256691 -0.026206 0.512188
v  1.018410 -0.026206 -0.687730
v  2.295776 -0.026206 -0.644571
v  1.081810 0.796183 0.346129
v  2.162739 0.796183 0.382651
v  1.113525 0.796183 -0.592646
v  2.194458 0.796183 -0.556125
v  1.350670 -0.024106 1.140378
v  1.922321 -0.026206 1.155909
v  1.340469 -0.026627 0.652032
v  1.919769 -0.029958 0.659203
v  1.377563 0.569660 1.098255
v  1.921389 0.560496 1.158858
v  1.340754 0.561866 0.651126
v  1.915833 0.552327 0.671657
v  -0.561014 -0.026206 1.695183
v  1.106844 -0.020748 1.743731
v  -0.509314 -0.026206 0.538920
v  1.184778 -0.026206 0.614667
v  -0.403696 1.085577 1.575801
v  1.071590 1.060199 1.598734
v  -0.361738 1.085577 0.637427
v  1.136005 1.085577 0.704395
v  0.156639 1.087000 1.452045
v  0.339708 1.085576 1.031009
v  -0.150116 1.085290 1.326742
v  0.029810 1.083030 0.898690
v  0.137669 1.489806 1.423948
v  0.341291 1.483590 1.032384
v  -0.150602 1.484519 1.326320
v  0.036499 1.478048 0.904499
# 61 vertices

vn 0.000000 -1.000000 -0.000000
vn 0.000000 -1.000000 -0.000000
vn 0.000000 -1.000000 -0.000000
vn 0.000000 -1.000000 -0.000000
vn 0.031293 0.996773 -0.073917
vn 0.138780 0.990277 -0.009592
vn 0.049364 0.997433 -0.051866
vn 0.017312 0.996609 -0.080436
vn 0.031293 0.996773 -0.073917
vn 0.017312 0.996609 -0.080436
vn 0.035407 0.995686 -0.085771
vn 0.818913 0.094270 0.566122
vn 0.833766 0.099691 0.543043
vn 0.821605 0.095518 0.561998
vn 0.817521 0.094012 0.568173
vn 0.817521 0.094012 0.568173
vn 0.821605 0.095518 0.561998
vn 0.817240 0.094324 0.568526
vn 0.369858 0.075155 -0.926044
vn 0.380183 0.085186 -0.920980
vn 0.366572 0.067202 -0.927959
vn 0.353831 0.048269 -0.934063
vn 0.366572 0.067202 -0.927959
vn 0.348906 0.006766 -0.937133
vn 0.353831 0.048269 -0.934063
vn -0.813287 0.076214 -0.576850
vn -0.819368 0.068698 -0.569137
vn -0.811110 0.078865 -0.579553
vn -0.803567 0.087898 -0.588689
vn -0.380792 0.063815 0.922456
vn -0.380792 0.063815 0.922456
vn -0.380792 0.063815 0.922456
vn -0.380792 0.063815 0.922456
vn 0.694299 0.674780 -0.250240
vn 0.694299 0.674780 -0.250240
vn 0.694299 0.674780 -0.250240
vn 0.000000 -1.000000 -0.000000
vn 0.000000 -1.000000 -0.000000
vn 0.000000 -1.000000 -0.000000
vn 0.000000 -1.000000 -0.000000
vn 0.000000 1.000000 -0.000000
vn 0.000000 1.000000 -0.000000
vn 0.000000 1.000000 -0.000000
vn 0.000000 1.000000 -0.000000
vn 0.000000 1.000000 -0.000000
vn 0.000000 1.000000 -0.000000
vn 0.000000 1.000000 -0.000000
vn 0.002139 0.061770 0.998088
vn 0.002138 0.061769 0.998088
vn 0.002139 0.061770 0.998088
vn 0.002139 0.061770 0.998088
vn 0.002139 0.061770 0.998088
vn 0.002139 0.061770 0.998088
vn 0.002139 0.061770 0.998088
vn 0.998048 0.062347 -0.003599
vn 0.998048 0.062347 -0.003600
vn 0.998048 0.062348 -0.003598
vn 0.998048 0.062348 -0.003597
vn 0.998048 0.062348 -0.003598
vn 0.998048 0.062347 -0.003598
vn 0.998048 0.062348 -0.003597
vn -0.002141 0.044949 -0.998987
vn -0.002141 0.044949 -0.998987
vn -0.002141 0.044949 -0.998987
vn -0.002141 0.044949 -0.998987
vn -0.998048 0.062348 0.003599
vn -0.998048 0.062347 0.003600
vn -0.998048 0.062348 0.003598
vn -0.998048 0.062349 0.003598
vn 0.502209 0.572799 0.647833
vn 0.502209 0.572799 0.647833
vn 0.502209 0.572799 0.647833
vn 0.000000 -1.000000 -0.000000
vn 0.000000 -1.000000 -0.000000
vn 0.000000 -1.000000 -0.000000
vn 0.000000 -1.000000 -0.000000
vn 0.232838 0.968076 0.092813
vn 0.030886 0.998924 -0.034583
vn 0.003512 0.990133 -0.140084
vn -0.923587 0.106983 -0.368159
vn -0.923587 0.106984 -0.368161
vn -0.923587 0.106983 -0.368159
vn -0.923588 0.106982 -0.368158
vn -0.228970 0.067461 0.971093
vn -0.229072 0.067527 0.971064
vn -0.228865 0.067393 0.971122
vn -0.228737 0.067309 0.971159
vn 0.927480 0.083224 0.364493
vn 0.925451 0.086313 0.368904
vn 0.928748 0.081266 0.361695
vn 0.931357 0.077174 0.355834
vn 0.132969 0.052668 -0.989720
vn 0.229596 -0.000595 -0.973286
vn 0.188896 0.022032 -0.981750
vn 0.079261 0.081608 -0.993508
vn 0.959180 0.203719 -0.196145
vn 0.959180 0.203719 -0.196145
vn 0.959180 0.203719 -0.196145
vn 0.030886 0.998924 -0.034583
vn 0.000000 1.000000 0.000000
vn -0.157829 0.952817 -0.259288
vn 0.003512 0.990133 -0.140084
vn 0.000000 -1.000000 -0.000000
vn 0.000000 -1.000000 -0.000000
vn 0.000000 -1.000000 -0.000000
vn 0.000000 -1.000000 -0.000000
vn 0.000000 1.000000 -0.000000
vn 0.000000 1.000000 -0.000000
vn 0.000000 1.000000 -0.000000
vn 0.000000 1.000000 -0.000000
vn -0.025859 0.117104 0.992783
vn -0.025859 0.117104 0.992783
vn -0.025859 0.117104 0.992783
vn -0.025859 0.117104 0.992783
vn 0.992047 0.118117 0.043479
vn 0.992047 0.118117 0.043480
vn 0.992047 0.118117 0.043479
vn 0.992047 0.118116 0.043479
vn 0.025943 0.085415 -0.996008
vn 0.025943 0.085415 -0.996008
vn 0.025943 0.085415 -0.996008
vn 0.025943 0.085415 -0.996008
vn -0.992047 0.118117 -0.043476
vn -0.992047 0.118117 -0.043477
vn -0.992047 0.118117 -0.043476
vn -0.992048 0.118116 -0.043475
vn -0.005121 -0.999955 0.007985
vn -0.005841 -0.999959 0.006881
vn -0.004615 -0.999951 0.008762
vn -0.003895 -0.999944 0.009867
vn 0.017861 0.999560 -0.023670
vn 0.018814 0.999578 -0.022112
vn 0.018283 0.999569 -0.022981
vn 0.017326 0.999549 -0.024546
vn -0.051239 0.025586 0.998359
vn -0.020954 -0.003891 0.999773
vn -0.053667 0.027950 0.998168
vn -0.084475 0.057983 0.994737
vn 0.999941 0.004954 -0.009669
vn 0.999954 0.006843 -0.006731
vn 0.999923 0.003539 -0.011871
vn 0.999889 0.001639 -0.014828
vn 0.018505 0.007554 -0.999800
vn 0.009535 -0.001186 -0.999954
vn 0.018715 0.007758 -0.999795
vn 0.027785 0.016598 -0.999476
vn -0.998087 0.031147 0.053403
vn -0.998561 0.046495 0.026739
vn -0.996831 0.017123 0.077680
vn -0.994348 0.000603 0.106169
vn 0.000956 -0.999998 0.002004
vn 0.000000 -1.000000 -0.000000
vn 0.002145 -0.999988 0.004497
vn 0.003138 -0.999973 0.006578
vn 0.004667 0.999932 0.010698
vn 0.016798 0.999117 0.038500
vn 0.011848 0.999561 0.027156
vn 0.000000 1.000000 -0.000000
vn -0.015502 0.091060 0.995725
vn -0.022651 0.101679 0.994559
vn -0.018093 0.094909 0.995321
vn -0.010496 0.083618 0.996443
vn 0.995082 0.039415 0.090870
vn 0.995318 0.037974 0.088880
vn 0.994938 0.040283 0.092068
vn 0.994639 0.042033 0.094483
vn 0.034380 0.063297 -0.997402
vn 0.034380 0.063297 -0.997402
vn 0.034380 0.063297 -0.997402
vn 0.034379 0.063297 -0.997402
vn -0.989229 0.134660 -0.057376
vn -0.989229 0.134660 -0.057376
vn -0.989229 0.134660 -0.057376
vn -0.989229 0.134660 -0.057376
vn 0.004194 -0.999958 0.008098
vn 0.002928 -0.999960 0.008474
vn 0.004472 -0.999958 0.008015
vn 0.005734 -0.999954 0.007640
vn -0.010600 0.999585 -0.026797
vn -0.009494 0.999588 -0.027077
vn -0.010349 0.999586 -0.026861
vn -0.011471 0.999581 -0.026577
vn 0.851856 0.029829 0.522926
vn 0.870991 -0.004752 0.491276
vn 0.849409 0.033981 0.526640
vn 0.827720 0.068641 0.556928
vn 0.310505 0.003658 -0.950565
vn 0.312609 0.005450 -0.949866
vn 0.309857 0.003107 -0.950778
vn 0.307736 0.001304 -0.951471
vn -0.872549 0.008939 -0.488446
vn -0.877975 -0.001454 -0.478704
vn -0.872108 0.009767 -0.489216
vn -0.866415 0.020244 -0.498915
vn -0.281194 0.022227 0.959393
vn -0.300342 0.036951 0.953115
vn -0.273216 0.016128 0.961817
vn -0.252621 0.000477 0.967565
# 198 vertex normals

vt 0.953926 0.476816 0.000000
vt 0.954104 0.445983 0.000000
vt 0.985558 0.445998 0.000000
vt 0.985048 0.476606 0.000000
vt 0.527462 0.808049 0.000000
vt 0.469938 0.809548 0.000000
vt 0.468250 0.771034 0.000000
vt 0.525775 0.769535 0.000000
vt 0.094341 0.942663 0.000000
vt 0.094847 0.883920 0.000000
vt 0.149720 0.896433 0.000000
vt 0.149214 0.955176 0.000000
vt 0.914149 0.697873 0.000000
vt 0.913949 0.677494 0.000000
vt 0.945068 0.678005 0.000000
vt 0.945505 0.697994 0.000000
vt 0.232423 0.902875 0.000000
vt 0.232595 0.950358 0.000000
vt 0.164578 0.950504 0.000000
vt 0.164407 0.903021 0.000000
vt 0.398320 0.863236 0.000000
vt 0.393257 0.830016 0.000000
vt 0.436038 0.829863 0.000000
vt 0.441101 0.863083 0.000000
vt 0.294405 0.679659 0.000000
vt 0.294405 0.632129 0.000000
vt 0.378205 0.635911 0.000000
vt 0.378205 0.667617 0.000000
vt 0.369306 0.675033 0.000000
vt 0.501724 0.156214 0.000000
vt 0.501724 0.108684 0.000000
vt 0.585524 0.113881 0.000000
vt 0.585524 0.152455 0.000000
vt 0.002000 0.951971 0.000000
vt 0.002000 0.883920 0.000000
vt 0.085761 0.889166 0.000000
vt 0.085761 0.946752 0.000000
vt 0.240767 0.989548 0.000000
vt 0.240654 0.959085 0.000000
vt 0.272051 0.959134 0.000000
vt 0.272541 0.988114 0.000000
vt 0.719685 0.509373 0.000000
vt 0.671028 0.509269 0.000000
vt 0.662153 0.502389 0.000000
vt 0.662268 0.470714 0.000000
vt 0.719824 0.470837 0.000000
vt 0.538308 0.604807 0.000000
vt 0.536228 0.652264 0.000000
vt 0.468250 0.650493 0.000000
vt 0.470330 0.603037 0.000000
vt 0.294697 0.856494 0.000000
vt 0.294405 0.810058 0.000000
vt 0.353968 0.813749 0.000000
vt 0.352609 0.850531 0.000000
vt 0.952924 0.141814 0.000000
vt 0.953059 0.121745 0.000000
vt 0.984845 0.123476 0.000000
vt 0.984428 0.141851 0.000000
vt 0.854505 0.245509 0.000000
vt 0.854505 0.177428 0.000000
vt 0.929405 0.182123 0.000000
vt 0.938304 0.191589 0.000000
vt 0.938304 0.240293 0.000000
vt 0.440904 0.821282 0.000000
vt 0.393257 0.821282 0.000000
vt 0.396900 0.777157 0.000000
vt 0.435568 0.777157 0.000000
vt 0.737203 0.647162 0.000000
vt 0.689556 0.647162 0.000000
vt 0.694619 0.603037 0.000000
vt 0.733287 0.603037 0.000000
vt 0.393257 0.715593 0.000000
vt 0.393257 0.667899 0.000000
vt 0.452995 0.672824 0.000000
vt 0.452995 0.711530 0.000000
vt 0.384677 0.623548 0.000000
vt 0.294405 0.623548 0.000000
vt 0.302268 0.564056 0.000000
vt 0.382078 0.564056 0.000000
vt 0.931651 0.257729 0.000000
vt 0.928899 0.305166 0.000000
vt 0.838744 0.302058 0.000000
vt 0.842891 0.255738 0.000000
vt 0.615003 0.647074 0.000000
vt 0.546888 0.647074 0.000000
vt 0.551961 0.603037 0.000000
vt 0.609600 0.603037 0.000000
vt 0.221728 0.340096 0.000000
vt 0.132767 0.339804 0.000000
vt 0.134647 0.281905 0.000000
vt 0.213337 0.280546 0.000000
vt 0.132438 0.786046 0.000000
vt 0.129806 0.769134 0.000000
vt 0.149792 0.769928 0.000000
vt 0.152241 0.787118 0.000000
vt 0.663841 0.660845 0.000000
vt 0.662227 0.701975 0.000000
vt 0.612803 0.690183 0.000000
vt 0.613871 0.662961 0.000000
vt 0.617200 0.702606 0.000000
vt 0.745783 0.636078 0.000000
vt 0.745783 0.603037 0.000000
vt 0.794403 0.606952 0.000000
vt 0.789642 0.626285 0.000000
vt 0.536475 0.704954 0.000000
vt 0.468250 0.704954 0.000000
vt 0.473268 0.660845 0.000000
vt 0.531001 0.660845 0.000000
vt 0.965668 0.626074 0.000000
vt 0.966210 0.646110 0.000000
vt 0.935381 0.645815 0.000000
vt 0.935245 0.625437 0.000000
vt 0.094341 0.996945 0.000000
vt 0.094341 0.963756 0.000000
vt 0.143179 0.966278 0.000000
vt 0.143179 0.990540 0.000000
vt 0.468250 0.859480 0.000000
vt 0.468250 0.818128 0.000000
vt 0.518328 0.820052 0.000000
vt 0.518328 0.855044 0.000000
vt 0.936393 0.776848 0.000000
vt 0.936486 0.760187 0.000000
vt 0.958456 0.761218 0.000000
vt 0.958168 0.776875 0.000000
vt 0.953220 0.749593 0.000000
vt 0.953081 0.732679 0.000000
vt 0.974732 0.733044 0.000000
vt 0.975036 0.749680 0.000000
vt 0.512057 0.948072 0.000000
vt 0.512187 0.929268 0.000000
vt 0.535031 0.929287 0.000000
vt 0.534661 0.947816 0.000000
vt 0.966422 0.436461 0.000000
vt 0.887894 0.437402 0.000000
vt 0.884465 0.400704 0.000000
vt 0.964188 0.397956 0.000000
vt 0.515943 0.713988 0.000000
vt 0.524652 0.753998 0.000000
vt 0.517617 0.760955 0.000000
vt 0.478596 0.759309 0.000000
vt 0.468250 0.713534 0.000000
vt 0.393265 0.659319 0.000000
vt 0.393257 0.603037 0.000000
vt 0.448798 0.607852 0.000000
vt 0.456021 0.615585 0.000000
vt 0.459670 0.656353 0.000000
vt 0.812851 0.456704 0.000000
vt 0.812798 0.397956 0.000000
vt 0.874903 0.402212 0.000000
vt 0.875885 0.441247 0.000000
vt 0.868243 0.450355 0.000000
vt 0.298663 0.744360 0.000000
vt 0.294405 0.688239 0.000000
vt 0.360884 0.688529 0.000000
vt 0.360269 0.735437 0.000000
vt 0.164407 0.835861 0.000000
vt 0.164407 0.777116 0.000000
vt 0.230651 0.782600 0.000000
vt 0.230651 0.830275 0.000000
vt 0.299993 0.196653 0.000000
vt 0.309284 0.204074 0.000000
vt 0.299858 0.207236 0.000000
vt 0.377358 0.763787 0.000000
vt 0.373279 0.752940 0.000000
vt 0.384508 0.752940 0.000000
vt 0.247395 0.902875 0.000000
vt 0.284757 0.902875 0.000000
vt 0.241175 0.922275 0.000000
vt 0.281019 0.927147 0.000000
vt 0.251964 0.926743 0.000000
vt 0.615620 0.834545 0.000000
vt 0.644650 0.833431 0.000000
vt 0.643417 0.853387 0.000000
vt 0.612803 0.852781 0.000000
vt 0.652978 0.877316 0.000000
vt 0.633665 0.878932 0.000000
vt 0.636998 0.862211 0.000000
vt 0.656965 0.861968 0.000000
vt 0.974842 0.645268 0.000000
vt 0.974791 0.625437 0.000000
vt 0.996063 0.625441 0.000000
vt 0.996420 0.644816 0.000000
# 182 texture coords

g StoneBlocks_1_AO
s 2
f 1/9/1 3/10/2 4/11/3 2/12/4 
s 4
f 5/137/5 10/138/6 9/139/7 8/140/8 
f 5/137/9 8/140/10 7/141/11 
s 8
f 2/143/12 6/144/13 10/145/14 1/142/15 
f 1/142/16 10/145/17 5/146/18 
s 16
f 2/147/19 4/148/20 8/149/21 6/151/22 
f 8/149/23 9/150/24 6/151/25 
s 32
f 4/152/26 3/153/27 7/154/28 8/155/29 
s 64
f 3/156/30 1/157/31 5/158/32 7/159/33 
s off
f 6/160/34 9/161/35 10/162/36 
s 2
f 11/17/37 13/18/38 14/19/39 12/20/40 
s 4
f 15/42/41 20/43/42 19/44/43 18/45/44 
f 15/42/45 18/45/46 17/46/47 
s 8
f 12/60/48 16/61/49 20/62/50 11/59/51 
f 11/59/52 20/62/53 15/63/54 
s 16
f 12/25/55 14/26/56 18/27/57 16/29/58 
f 18/27/59 19/28/60 16/29/61 
s 32
f 14/34/62 13/35/63 17/36/64 18/37/65 
s 64
f 13/30/66 11/31/67 15/32/68 17/33/69 
s off
f 16/163/70 19/164/71 20/165/72 
s 2
f 21/21/73 23/22/74 24/23/75 22/24/76 
s 4
f 25/166/77 26/167/78 28/168/79 
s 8
f 21/117/80 22/118/81 26/119/82 25/120/83 
s 16
f 22/113/84 24/114/85 27/115/86 26/116/87 
s 32
f 24/96/88 23/97/89 29/98/90 27/99/91 
s 64
f 28/104/92 23/101/93 21/102/94 25/103/95 
s off
f 23/97/96 28/100/97 29/98/98 
s 4
f 26/167/99 27/169/100 29/170/101 28/168/102 
s 2
f 30/47/103 32/48/104 33/49/105 31/50/106 
s 4
f 34/5/107 35/6/108 37/7/109 36/8/110 
s 8
f 30/105/111 31/106/112 35/107/113 34/108/114 
s 16
f 31/64/115 33/65/116 37/66/117 35/67/118 
s 32
f 33/84/119 32/85/120 36/86/121 37/87/122 
s 64
f 32/68/123 30/69/124 34/70/125 36/71/126 
s 2
f 38/109/127 40/110/128 41/111/129 39/112/130 
s 4
f 42/171/131 43/172/132 45/173/133 44/174/134 
s 8
f 38/38/135 39/39/136 43/40/137 42/41/138 
s 16
f 39/13/139 41/14/140 45/15/141 43/16/142 
s 32
f 41/1/143 40/2/144 44/3/145 45/4/146 
s 64
f 40/55/147 38/56/148 42/57/149 44/58/150 
s 2
f 46/80/151 48/81/152 49/82/153 47/83/154 
s 4
f 50/133/155 51/134/156 53/135/157 52/136/158 
s 8
f 46/88/159 47/89/160 51/90/161 50/91/162 
s 16
f 47/51/163 49/52/164 53/53/165 51/54/166 
s 32
f 49/76/167 48/77/168 52/78/169 53/79/170 
s 64
f 48/72/171 46/73/172 50/74/173 52/75/174 
s 2
f 54/92/175 56/93/176 57/94/177 55/95/178 
s 4
f 58/175/179 59/176/180 61/177/181 60/178/182 
s 8
f 54/179/183 55/180/184 59/181/185 58/182/186 
s 16
f 55/125/187 57/126/188 61/127/189 59/128/190 
s 32
f 57/129/191 56/130/192 60/131/193 61/132/194 
s 64
f 56/121/195 54/122/196 58/123/197 60/124/198 
# 42 polygons - 10 triangles

