# 3ds Max Wavefront OBJ Exporter v0.97b - (c)2007 guruware
# File Created: 19.10.2017 13:04:38

#
# object Tree_3_AO
#

v  0.018258 3.709916 1.153558
v  1.110465 3.970400 0.562982
v  -0.308993 4.626858 0.536806
v  -0.918535 4.304583 0.050619
v  -1.050143 2.192128 0.363179
v  -0.429724 2.200118 0.721492
v  0.911146 4.113073 -0.856391
v  -0.155893 3.806431 -1.183100
v  -1.124189 2.190742 -0.498847
v  -0.487297 1.648756 0.635036
v  0.022494 1.988289 0.541798
v  -0.123722 1.796284 -0.508173
v  -0.020746 -0.053069 0.017742
v  -0.574623 -0.052221 -0.356920
v  -0.619304 -0.053069 0.682667
v  -1.174376 -0.053069 0.062217
v  -0.266888 2.033871 -0.124302
v  -0.799814 2.113806 -0.224745
v  -0.751146 2.049720 0.318719
v  -0.374282 2.073115 0.271709
v  -0.558424 0.905754 -0.205238
v  -0.965171 0.897980 0.050899
v  -0.806324 0.890642 0.376823
v  -0.381292 0.900011 -0.148747
# 24 vertices

vn 0.264241 0.601433 0.753959
vn 0.264241 0.601433 0.753959
vn 0.264241 0.601433 0.753959
vn -0.677974 0.228068 0.698811
vn -0.677974 0.228068 0.698811
vn -0.677974 0.228068 0.698811
vn -0.713856 0.145818 0.684942
vn -0.713856 0.145818 0.684942
vn -0.713856 0.145818 0.684942
vn -0.496683 -0.099373 0.862225
vn -0.496683 -0.099373 0.862225
vn -0.496683 -0.099373 0.862225
vn 0.508572 -0.372984 0.776039
vn 0.508572 -0.372984 0.776039
vn 0.508572 -0.372984 0.776039
vn 0.864780 -0.472868 -0.168971
vn 0.864780 -0.472868 -0.168971
vn 0.864780 -0.472868 -0.168971
vn -0.122642 0.891470 -0.436165
vn -0.122642 0.891470 -0.436165
vn -0.122642 0.891470 -0.436165
vn -0.785038 0.226268 -0.576645
vn -0.785038 0.226268 -0.576645
vn -0.785038 0.226268 -0.576645
vn -0.708553 -0.702929 0.061995
vn -0.708553 -0.702929 0.061995
vn -0.708553 -0.702929 0.061995
vn 0.290360 -0.177756 0.940263
vn 0.290360 -0.177756 0.940263
vn 0.290360 -0.177756 0.940263
vn 0.419044 0.907389 0.032364
vn 0.419044 0.907389 0.032364
vn 0.419044 0.907389 0.032364
vn -0.123372 0.891363 -0.436178
vn -0.123372 0.891363 -0.436178
vn -0.123372 0.891363 -0.436178
vn -0.993572 0.074511 0.085227
vn -0.993572 0.074511 0.085227
vn -0.993572 0.074511 0.085227
vn -0.497569 -0.083427 0.863403
vn -0.497569 -0.083427 0.863403
vn -0.497569 -0.083427 0.863403
vn 0.293537 -0.171173 0.940498
vn 0.293537 -0.171173 0.940498
vn 0.293537 -0.171173 0.940498
vn 0.355799 -0.292347 -0.887660
vn 0.355799 -0.292347 -0.887660
vn 0.355799 -0.292347 -0.887660
vn -0.133876 -0.317357 -0.938809
vn -0.133876 -0.317357 -0.938809
vn -0.133876 -0.317357 -0.938809
vn -0.358751 -0.904447 -0.230810
vn -0.358751 -0.904447 -0.230810
vn -0.358751 -0.904447 -0.230810
vn 0.562014 -0.823952 0.072409
vn 0.562014 -0.823952 0.072409
vn 0.562014 -0.823952 0.072409
vn 0.908993 -0.413687 -0.050935
vn 0.908993 -0.413687 -0.050935
vn 0.908993 -0.413687 -0.050935
vn 0.527084 0.099296 -0.843992
vn 0.337717 0.006255 -0.941227
vn 0.302703 -0.033117 -0.952509
vn -0.567471 0.138121 -0.811726
vn -0.556850 0.128834 -0.820561
vn -0.541466 0.008139 -0.840683
vn -0.734512 0.169392 0.657114
vn -0.780984 0.122766 0.612366
vn -0.888903 0.074944 0.451923
vn 0.705123 0.357902 0.612134
vn 0.762572 0.135329 0.632590
vn 0.792331 0.134774 0.595020
vn 0.337717 0.006255 -0.941227
vn 0.199833 0.018642 -0.979653
vn 0.302703 -0.033117 -0.952509
vn -0.532982 0.010445 -0.846062
vn -0.527454 -0.118978 -0.841212
vn -0.541466 0.008139 -0.840683
vn -0.898822 0.007943 0.438242
vn -0.975740 0.142713 0.166026
vn -0.888903 0.074944 0.451923
vn 0.762572 0.135329 0.632590
vn 0.886590 -0.246877 0.391165
vn 0.792331 0.134774 0.595020
vn 0.527084 0.099296 -0.843992
vn 0.556316 0.120768 -0.822148
vn 0.337717 0.006255 -0.941227
vn -0.556850 0.128834 -0.820561
vn -0.532982 0.010445 -0.846062
vn -0.541466 0.008139 -0.840683
vn -0.780984 0.122766 0.612366
vn -0.898822 0.007943 0.438242
vn -0.888903 0.074944 0.451923
vn 0.705123 0.357902 0.612134
vn 0.690534 0.369813 0.621611
vn 0.762572 0.135329 0.632590
vn 0.337717 0.006255 -0.941227
vn 0.188322 0.021776 -0.981866
vn 0.199833 0.018642 -0.979653
vn -0.888903 0.074944 0.451923
vn -0.975740 0.142713 0.166026
vn -0.981732 0.157666 0.106509
vn 0.120974 0.043954 0.991682
vn 0.120974 0.043954 0.991682
vn 0.120974 0.043954 0.991682
vn 0.886590 -0.246877 0.391165
vn 0.910112 -0.307876 0.277324
vn 0.792331 0.134774 0.595020
# 108 vertex normals

vt 0.159821 0.457551 0.000000
vt 0.240214 0.232057 0.000000
vt 0.454536 0.184146 0.000000
vt 0.442878 0.133907 0.000000
vt 0.681252 0.665157 0.000000
vt 0.229519 0.482017 0.000000
vt 0.340463 0.246271 0.000000
vt 0.461381 0.281159 0.000000
vt 0.713639 0.686261 0.000000
vt 0.721883 0.814585 0.000000
vt 0.769956 0.812132 0.000000
vt 0.230456 0.295813 0.000000
vt 0.810990 0.321667 0.000000
vt 0.477048 0.117853 0.000000
vt 0.544467 0.185384 0.000000
vt 0.125309 0.503400 0.000000
vt 0.420106 0.103491 0.000000
vt 0.353177 0.298736 0.000000
vt 0.366448 0.232057 0.000000
vt 0.447319 0.260831 0.000000
vt 0.545319 0.238650 0.000000
vt 0.577956 0.281403 0.000000
vt 0.461436 0.232057 0.000000
vt 0.163553 0.935358 0.000000
vt 0.769631 0.839812 0.000000
vt 0.582644 0.512881 0.000000
vt 0.536387 0.533676 0.000000
vt 0.537617 0.525359 0.000000
vt 0.373162 0.601975 0.000000
vt 0.373123 0.569088 0.000000
vt 0.377563 0.550536 0.000000
vt 0.377563 0.512881 0.000000
vt 0.373770 0.920239 0.000000
vt 0.419028 0.884727 0.000000
vt 0.618034 0.740151 0.000000
vt 0.487081 0.514132 0.000000
vt 0.416637 0.598666 0.000000
vt 0.427229 0.993890 0.000000
vt 0.421210 0.544608 0.000000
vt 0.763347 0.641647 0.000000
vt 0.671060 0.740146 0.000000
vt 0.579352 0.540852 0.000000
vt 0.416147 0.577086 0.000000
vt 0.469457 0.590276 0.000000
vt 0.420125 0.528831 0.000000
vt 0.472405 0.529126 0.000000
vt 0.418583 0.914941 0.000000
vt 0.480631 0.538169 0.000000
vt 0.373123 0.880294 0.000000
vt 0.252241 0.492183 0.000000
vt 0.867071 0.329912 0.000000
vt 0.453156 0.299065 0.000000
vt 0.227293 0.504656 0.000000
vt 0.344951 0.293883 0.000000
vt 0.155337 0.232057 0.000000
vt 0.650690 0.686020 0.000000
vt 0.208953 0.300990 0.000000
vt 0.157825 0.313442 0.000000
vt 0.222230 0.234719 0.000000
vt 0.125309 0.253271 0.000000
vt 0.504469 0.074812 0.000000
vt 0.493525 0.104131 0.000000
vt 0.518493 0.109488 0.000000
vt 0.617596 0.768353 0.000000
vt 0.672895 0.759307 0.000000
vt 0.373282 0.997694 0.000000
vt 0.373123 0.973465 0.000000
vt 0.820655 0.638347 0.000000
vt 0.815236 0.653957 0.000000
vt 0.125309 0.893961 0.000000
vt 0.186406 0.894283 0.000000
vt 0.812166 0.373147 0.000000
# 72 texture coords

g Tree_3_AO
s off
f 1/13/1 2/51/2 3/72/3 
f 1/3/4 3/4/5 4/14/6 
f 1/3/7 4/14/8 5/15/9 
f 1/17/10 5/61/11 6/62/12 
f 1/1/13 6/6/14 2/16/15 
f 2/2/16 11/7/17 7/12/18 
f 3/55/19 7/57/20 8/58/21 
f 4/18/22 8/19/23 9/20/24 
f 5/5/25 9/9/26 10/56/27 
f 6/6/28 10/50/29 11/53/30 
f 7/57/31 3/55/32 2/59/33 
f 8/58/34 4/60/35 3/55/36 
f 9/20/37 5/52/38 4/18/39 
f 10/63/40 6/62/41 5/61/42 
f 11/53/43 2/16/44 6/6/45 
f 12/8/46 8/21/47 7/22/48 
f 12/8/49 9/23/50 8/21/51 
f 12/24/52 10/70/53 9/71/54 
f 12/10/55 11/11/56 10/25/57 
f 12/54/58 7/12/59 11/7/60 
s 2
f 13/26/61 21/27/62 24/28/63 
s 4
f 14/29/64 16/30/65 21/37/66 
s 8
f 16/31/67 15/32/68 22/39/69 
s 4
f 15/33/70 24/34/71 23/47/72 
s 2
f 21/27/73 17/36/74 24/28/75 
s 4
f 22/43/76 18/44/77 21/37/78 
s 8
f 23/45/79 19/46/80 22/39/81 
s 4
f 24/35/82 17/41/83 23/64/84 
s 2
f 13/26/85 14/42/86 21/27/87 
s 4
f 16/30/88 22/43/89 21/37/90 
s 8
f 15/32/91 23/45/92 22/39/93 
s 4
f 15/33/94 13/49/95 24/34/96 
s 2
f 21/27/97 18/48/98 17/36/99 
s 8
f 22/38/100 19/66/101 18/67/102 
s 1
f 23/40/103 20/68/104 19/69/105 
s 4
f 17/41/106 20/65/107 23/64/108 
# 0 polygons - 36 triangles

