# 3ds Max Wavefront OBJ Exporter v0.97b - (c)2007 guruware
# File Created: 19.10.2017 13:05:14

#
# object Tree_6_AO
#

v  -0.765707 2.850833 -0.115584
v  0.640720 2.760734 0.244789
v  -0.047518 3.803555 0.099154
v  -0.505159 2.950050 -0.709868
v  0.447470 2.783974 -0.636330
v  0.235962 3.739402 -0.184985
v  -0.274513 3.732895 -0.022564
v  -0.061039 3.629668 -0.600681
v  -0.190273 3.588709 -0.824924
v  -0.425364 3.726293 -0.049500
v  -0.136038 3.779067 0.360323
v  -0.093733 4.408576 -0.110617
v  -0.089249 4.323780 -0.297918
v  -0.025171 4.336823 -0.405713
v  0.428747 3.551204 -0.574044
v  0.354677 3.650941 -0.048343
v  0.129339 4.306515 -0.143138
v  0.155643 4.349834 -0.302383
v  -0.105410 4.460500 0.042168
v  -0.297007 4.333576 -0.279950
v  -0.098827 4.279819 -0.597265
v  0.203310 4.326272 0.003184
v  0.286005 4.314873 -0.330988
v  0.065567 5.089253 -0.261983
v  0.098349 0.760668 1.183402
v  -0.882315 0.657928 0.602189
v  0.928537 0.805314 0.192345
v  0.056919 2.275106 0.343131
v  -0.793533 0.882253 -0.650918
v  0.259138 0.924960 -1.106711
v  0.432793 2.176241 -0.284266
v  -0.438911 2.166566 0.337615
v  -0.533659 1.863432 -0.616362
v  -0.797825 1.817932 -0.801045
v  -0.701714 2.217827 0.391890
v  0.140921 2.146242 0.790649
v  -0.172974 2.892540 0.310561
v  -0.311558 2.740528 -0.208392
v  -0.322491 2.757280 -0.457458
v  0.437588 1.883276 -1.040543
v  0.857349 2.067605 -0.190597
v  0.229265 2.681981 -0.028870
v  0.146605 2.746060 -0.472250
v  -0.150480 2.972179 0.560669
v  0.176668 -0.053069 0.560520
v  0.457422 -0.052221 -0.104812
v  -0.648348 -0.053069 0.164265
v  -0.011410 -0.053069 -0.636080
v  0.313173 0.905754 -0.051009
v  0.035177 0.897980 -0.426531
v  -0.342531 0.890641 -0.129369
v  0.270979 0.900011 0.154519
# 52 vertices

vn 0.429852 0.396948 0.810962
vn 0.429852 0.396948 0.810962
vn 0.429852 0.396948 0.810962
vn -0.710931 0.406584 0.573818
vn -0.710931 0.406584 0.573818
vn -0.710931 0.406584 0.573818
vn -0.825769 0.489408 -0.280329
vn -0.825769 0.489408 -0.280329
vn -0.825769 0.489408 -0.280329
vn 0.933523 0.299646 -0.196841
vn 0.933523 0.299646 -0.196841
vn 0.933523 0.299646 -0.196841
vn 0.662655 0.513476 0.545188
vn 0.662655 0.513476 0.545188
vn 0.662655 0.513476 0.545188
vn -0.510046 0.195698 0.837589
vn -0.510046 0.195698 0.837589
vn -0.510046 0.195698 0.837589
vn 0.093573 0.098029 -0.990775
vn 0.093573 0.098029 -0.990775
vn 0.093573 0.098029 -0.990775
vn 0.676135 0.431722 -0.597041
vn 0.676135 0.431722 -0.597041
vn 0.676135 0.431722 -0.597041
vn -0.747678 0.548689 -0.374057
vn -0.747678 0.548689 -0.374057
vn -0.747678 0.548689 -0.374057
vn -0.767090 0.416557 0.487907
vn -0.767090 0.416557 0.487907
vn -0.767090 0.416557 0.487907
vn -0.886918 0.412466 -0.207963
vn -0.886918 0.412466 -0.207963
vn -0.886918 0.412466 -0.207963
vn -0.875008 0.355696 -0.328392
vn -0.875008 0.355696 -0.328392
vn -0.875008 0.355696 -0.328392
vn 0.365827 0.392210 -0.844004
vn 0.365827 0.392210 -0.844004
vn 0.365827 0.392210 -0.844004
vn 0.653969 0.323661 0.683789
vn 0.653969 0.323661 0.683789
vn 0.653969 0.323661 0.683789
vn 0.359245 0.543442 0.758692
vn 0.359245 0.543442 0.758692
vn 0.359245 0.543442 0.758692
vn -0.802786 0.416349 -0.426835
vn -0.802786 0.416349 -0.426835
vn -0.802786 0.416349 -0.426835
vn 0.951130 0.298962 0.077292
vn 0.951130 0.298962 0.077292
vn 0.951130 0.298962 0.077292
vn 0.905751 0.346597 0.243896
vn 0.905751 0.346597 0.243896
vn 0.905751 0.346597 0.243896
vn 0.427667 0.418746 -0.801094
vn 0.427667 0.418746 -0.801094
vn 0.427667 0.418746 -0.801094
vn -0.173735 -0.926466 0.333881
vn -0.128944 -0.942654 0.307859
vn -0.196043 -0.917305 0.346581
vn 0.006362 -0.984236 0.176745
vn 0.009964 -0.983790 0.179048
vn 0.005848 -0.984298 0.176417
vn 0.189309 -0.981491 0.028944
vn 0.208253 -0.977847 -0.021102
vn 0.132331 -0.976329 0.171086
vn -0.416433 -0.881200 -0.223764
vn -0.416433 -0.881200 -0.223764
vn -0.416433 -0.881200 -0.223764
vn -0.539501 -0.838705 -0.074251
vn -0.637243 -0.768623 0.056039
vn -0.531802 -0.842737 -0.083550
vn 0.076051 -0.942287 0.326054
vn 0.076051 -0.942287 0.326054
vn 0.076051 -0.942287 0.326054
vn -0.353572 -0.893560 0.276655
vn -0.353572 -0.893560 0.276655
vn -0.353572 -0.893560 0.276655
vn 0.122340 -0.963139 0.239576
vn 0.122340 -0.963139 0.239576
vn 0.122340 -0.963139 0.239576
vn 0.132532 -0.988943 0.066532
vn 0.132532 -0.988943 0.066532
vn 0.132532 -0.988943 0.066532
vn -0.117991 -0.938449 0.324640
vn -0.117991 -0.938449 0.324640
vn -0.117991 -0.938449 0.324640
vn -0.848581 0.398885 0.347565
vn -0.848581 0.398885 0.347565
vn -0.848581 0.398885 0.347565
vn 0.269004 0.359151 0.893671
vn 0.269004 0.359151 0.893671
vn 0.269004 0.359151 0.893671
vn -0.756166 0.375549 -0.535889
vn -0.756166 0.375549 -0.535889
vn -0.756166 0.375549 -0.535889
vn 0.942283 0.248210 0.224708
vn 0.942283 0.248210 0.224708
vn 0.942283 0.248210 0.224708
vn 0.540270 0.226025 -0.810568
vn 0.540270 0.226025 -0.810568
vn 0.540270 0.226025 -0.810568
vn -0.173735 -0.926466 0.333881
vn 0.502685 -0.854068 -0.133701
vn -0.128944 -0.942654 0.307859
vn 0.006362 -0.984236 0.176745
vn 0.010969 -0.983662 0.179690
vn 0.009964 -0.983790 0.179048
vn 0.132331 -0.976329 0.171086
vn -0.071716 -0.798721 0.597412
vn 0.189309 -0.981491 0.028944
vn -0.531802 -0.842737 -0.083550
vn -0.413995 -0.884952 -0.213232
vn -0.539501 -0.838705 -0.074251
vn -0.007301 -0.911032 0.412270
vn -0.007301 -0.911032 0.412270
vn -0.007301 -0.911032 0.412270
vn -0.360055 -0.882955 0.301247
vn -0.360055 -0.882955 0.301247
vn -0.360055 -0.882955 0.301247
vn -0.059895 -0.986110 -0.154917
vn -0.059895 -0.986110 -0.154917
vn -0.059895 -0.986110 -0.154917
vn -0.307573 -0.904072 -0.296735
vn -0.307573 -0.904072 -0.296735
vn -0.307573 -0.904072 -0.296735
vn -0.166661 -0.917308 0.361621
vn -0.166661 -0.917308 0.361621
vn -0.166661 -0.917308 0.361621
vn 0.707975 0.357352 0.609157
vn 0.707975 0.357352 0.609157
vn 0.707975 0.357352 0.609157
vn -0.496317 0.410770 0.764812
vn -0.496317 0.410770 0.764812
vn -0.496317 0.410770 0.764812
vn -0.960116 0.279017 -0.018076
vn -0.960116 0.279017 -0.018076
vn -0.960116 0.279017 -0.018076
vn 0.882687 0.166389 -0.439521
vn 0.882687 0.166389 -0.439521
vn 0.882687 0.166389 -0.439521
vn 0.801650 0.433128 0.412017
vn 0.801650 0.433128 0.412017
vn 0.801650 0.433128 0.412017
vn -0.051913 0.187287 0.980933
vn -0.051913 0.187287 0.980933
vn -0.051913 0.187287 0.980933
vn -0.398260 0.137423 -0.906920
vn -0.398260 0.137423 -0.906920
vn -0.398260 0.137423 -0.906920
vn 0.114751 0.534461 -0.837367
vn 0.114751 0.534461 -0.837367
vn 0.114751 0.534461 -0.837367
vn -0.966692 0.255514 0.014818
vn -0.966692 0.255514 0.014818
vn -0.966692 0.255514 0.014818
vn -0.366782 0.389278 0.844946
vn -0.366782 0.389278 0.844946
vn -0.366782 0.389278 0.844946
vn -0.785121 0.618689 0.028437
vn -0.785121 0.618689 0.028437
vn -0.785121 0.618689 0.028437
vn -0.850660 0.515287 -0.104198
vn -0.850660 0.515287 -0.104198
vn -0.850660 0.515287 -0.104198
vn -0.193999 0.422081 -0.885558
vn -0.193999 0.422081 -0.885558
vn -0.193999 0.422081 -0.885558
vn 0.680796 0.577319 0.450798
vn 0.680796 0.577319 0.450798
vn 0.680796 0.577319 0.450798
vn 0.681801 0.576478 0.450357
vn 0.681801 0.576478 0.450357
vn 0.681801 0.576478 0.450357
vn -0.900038 0.430402 0.068458
vn -0.900038 0.430402 0.068458
vn -0.900038 0.430402 0.068458
vn 0.700986 0.541846 -0.463705
vn 0.700986 0.541846 -0.463705
vn 0.700986 0.541846 -0.463705
vn 0.695609 0.717953 -0.025924
vn 0.695609 0.717953 -0.025924
vn 0.695609 0.717953 -0.025924
vn -0.013314 0.546887 -0.837101
vn -0.013314 0.546887 -0.837101
vn -0.013314 0.546887 -0.837101
vn 0.138036 -0.936983 0.320949
vn 0.209973 -0.963197 0.167819
vn 0.118618 -0.925643 0.359325
vn -0.068528 -0.944718 0.320642
vn -0.110032 -0.943285 0.313220
vn -0.062194 -0.944789 0.321722
vn 0.061208 -0.978469 -0.197109
vn 0.053884 -0.956823 -0.285635
vn 0.085101 -0.981597 0.170954
vn -0.365182 -0.910571 -0.193655
vn -0.365182 -0.910571 -0.193655
vn -0.365182 -0.910571 -0.193655
vn -0.278380 -0.946326 0.164229
vn -0.303120 -0.889255 0.342555
vn -0.283411 -0.938808 0.195749
vn -0.158774 -0.936555 0.312500
vn -0.158774 -0.936555 0.312500
vn -0.158774 -0.936555 0.312500
vn -0.127381 -0.941728 0.311324
vn -0.127381 -0.941728 0.311324
vn -0.127381 -0.941728 0.311324
vn -0.431323 -0.839941 -0.329331
vn -0.431323 -0.839941 -0.329331
vn -0.431323 -0.839941 -0.329331
vn 0.236907 -0.968436 -0.077503
vn 0.236907 -0.968436 -0.077503
vn 0.236907 -0.968436 -0.077503
vn -0.037881 -0.807202 -0.589059
vn -0.037881 -0.807202 -0.589059
vn -0.037881 -0.807202 -0.589059
vn 0.195810 -0.967610 -0.159343
vn 0.195810 -0.967610 -0.159343
vn 0.195810 -0.967610 -0.159343
vn 0.000563 -0.995759 -0.092002
vn 0.000563 -0.995759 -0.092002
vn 0.000563 -0.995759 -0.092002
vn -0.016010 -0.998166 -0.058378
vn -0.016010 -0.998166 -0.058378
vn -0.016010 -0.998166 -0.058378
vn 0.138036 -0.936983 0.320949
vn 0.396918 -0.844436 -0.359700
vn 0.209973 -0.963197 0.167819
vn -0.068528 -0.944718 0.320642
vn -0.119566 -0.942717 0.311431
vn -0.110032 -0.943285 0.313220
vn 0.085101 -0.981597 0.170954
vn 0.091638 -0.463417 0.881389
vn 0.061208 -0.978469 -0.197109
vn -0.283411 -0.938808 0.195749
vn -0.248650 -0.968586 0.003662
vn -0.278380 -0.946326 0.164229
vn -0.162177 -0.934448 0.317027
vn -0.162177 -0.934448 0.317027
vn -0.162177 -0.934448 0.317027
vn -0.111089 -0.898121 0.425485
vn -0.111089 -0.898121 0.425485
vn -0.111089 -0.898121 0.425485
vn -0.246137 -0.967714 -0.054286
vn -0.246137 -0.967714 -0.054286
vn -0.246137 -0.967714 -0.054286
vn 0.042314 -0.987684 -0.150634
vn 0.042314 -0.987684 -0.150634
vn 0.042314 -0.987684 -0.150634
vn -0.122543 -0.893874 -0.431245
vn -0.122543 -0.893874 -0.431245
vn -0.122543 -0.893874 -0.431245
vn 0.927366 0.098235 0.361028
vn 0.959347 0.041470 0.279165
vn 0.979570 -0.011402 0.200781
vn 0.741373 0.148392 -0.654481
vn 0.759074 0.132024 -0.637476
vn 0.776830 0.114831 -0.619152
vn -0.770675 0.172889 -0.613326
vn -0.733725 0.110920 -0.670332
vn -0.706746 0.070659 -0.703930
vn -0.395952 0.390430 0.831136
vn -0.394940 0.389463 0.832070
vn -0.392124 0.386772 0.834653
vn 0.927366 0.098235 0.361028
vn 0.915048 0.116092 0.386277
vn 0.959347 0.041470 0.279165
vn 0.759074 0.132024 -0.637476
vn 0.799439 0.091655 -0.593714
vn 0.776830 0.114831 -0.619152
vn -0.733725 0.110920 -0.670332
vn -0.617181 -0.044425 -0.785566
vn -0.706746 0.070659 -0.703930
vn -0.395952 0.390430 0.831136
vn -0.398194 0.392571 0.829053
vn -0.394940 0.389463 0.832070
# 276 vertex normals

vt 0.565703 0.746393 0.000000
vt 0.884875 0.375984 0.000000
vt 0.377563 0.560355 0.000000
vt 0.667254 0.854564 0.000000
vt 0.500836 0.946420 0.000000
vt 0.409964 0.503290 0.000000
vt 0.384228 0.558761 0.000000
vt 0.986862 0.856720 0.000000
vt 0.211839 0.965596 0.000000
vt 0.211973 0.925887 0.000000
vt 0.487155 0.722473 0.000000
vt 0.481288 0.763286 0.000000
vt 0.255034 0.963091 0.000000
vt 0.540697 0.964859 0.000000
vt 0.386616 0.503138 0.000000
vt 0.437935 0.739935 0.000000
vt 0.374988 0.501772 0.000000
vt 0.396029 0.560532 0.000000
vt 0.839463 0.935636 0.000000
vt 0.768025 0.994230 0.000000
vt 0.768056 0.971692 0.000000
vt 0.618098 0.971185 0.000000
vt 0.654189 0.862710 0.000000
vt 0.653319 0.896869 0.000000
vt 0.644545 0.893995 0.000000
vt 0.002706 0.192086 0.000000
vt 0.104040 0.117853 0.000000
vt 0.850257 0.928659 0.000000
vt 0.848960 0.952004 0.000000
vt 0.617596 0.941768 0.000000
vt 0.647477 0.952067 0.000000
vt 0.968786 0.812185 0.000000
vt 0.123794 0.125392 0.000000
vt 0.942527 0.833004 0.000000
vt 0.929176 0.812132 0.000000
vt 0.039563 0.204940 0.000000
vt 0.833315 0.978768 0.000000
vt 0.836828 0.984932 0.000000
vt 0.821126 0.977541 0.000000
vt 0.847662 0.975433 0.000000
vt 0.828294 0.965669 0.000000
vt 0.820502 0.960229 0.000000
vt 0.989186 0.638347 0.000000
vt 0.611994 0.367845 0.000000
vt 0.385452 0.117853 0.000000
vt 0.147535 0.172735 0.000000
vt 0.434652 0.145452 0.000000
vt 0.343067 0.146559 0.000000
vt 0.353177 0.311078 0.000000
vt 0.159231 0.169245 0.000000
vt 0.948031 0.666983 0.000000
vt 0.433012 0.196937 0.000000
vt 0.541389 0.321667 0.000000
vt 0.367429 0.199256 0.000000
vt 0.211839 0.584751 0.000000
vt 0.536969 0.379571 0.000000
vt 0.384861 0.781989 0.000000
vt 0.400777 0.307291 0.000000
vt 0.914918 0.393691 0.000000
vt 0.414922 0.310673 0.000000
vt 0.181595 0.173018 0.000000
vt 0.600301 0.174207 0.000000
vt 0.583511 0.885502 0.000000
vt 0.607758 0.919519 0.000000
vt 0.428255 0.771559 0.000000
vt 0.825868 0.220493 0.000000
vt 0.819793 0.182243 0.000000
vt 0.844709 0.185354 0.000000
vt 0.793328 0.895578 0.000000
vt 0.875296 0.367759 0.000000
vt 0.631695 0.120837 0.000000
vt 0.635040 0.179120 0.000000
vt 0.373123 0.773764 0.000000
vt 0.396269 0.740546 0.000000
vt 0.287530 0.924244 0.000000
vt 0.573789 0.153034 0.000000
vt 0.419599 0.729790 0.000000
vt 0.382010 0.729400 0.000000
vt 0.768025 0.901433 0.000000
vt 0.948458 0.024624 0.000000
vt 0.788557 0.879504 0.000000
vt 0.936960 0.023226 0.000000
vt 0.812277 0.900913 0.000000
vt 0.973399 0.002000 0.000000
vt 0.943574 0.061962 0.000000
vt 0.565703 0.959831 0.000000
vt 0.608954 0.931568 0.000000
vt 0.840640 0.728475 0.000000
vt 0.840602 0.696785 0.000000
vt 0.257903 0.917662 0.000000
vt 0.211839 0.917662 0.000000
vt 0.287665 0.915627 0.000000
vt 0.333842 0.878635 0.000000
vt 0.608695 0.941032 0.000000
vt 0.883965 0.726009 0.000000
vt 0.883354 0.705190 0.000000
vt 0.251826 0.874176 0.000000
vt 0.230762 0.875362 0.000000
vt 0.333389 0.908839 0.000000
vt 0.565741 0.927830 0.000000
vt 0.287530 0.874736 0.000000
vt 0.259124 0.946220 0.000000
vt 0.437430 0.761406 0.000000
vt 0.712645 0.854216 0.000000
vt 0.674547 0.883033 0.000000
vt 0.800697 0.984806 0.000000
vt 0.075409 0.804831 0.000000
vt 0.989171 0.655233 0.000000
vt 0.932841 0.952138 0.000000
vt 0.951838 0.652181 0.000000
vt 0.932745 0.967768 0.000000
vt 0.805224 0.943127 0.000000
vt 0.383266 0.109283 0.000000
vt 0.467579 0.346173 0.000000
vt 0.689200 0.447042 0.000000
vt 0.424411 0.825906 0.000000
vt 0.904421 0.440272 0.000000
vt 0.617903 0.447091 0.000000
vt 0.666110 0.393649 0.000000
vt 0.468460 0.378588 0.000000
vt 0.277349 0.585161 0.000000
vt 0.855818 0.393649 0.000000
vt 0.711093 0.881997 0.000000
vt 0.617596 0.863636 0.000000
vt 0.002000 0.221979 0.000000
vt 0.639427 0.896032 0.000000
vt 0.040844 0.214151 0.000000
vt 0.652047 0.961411 0.000000
vt 0.099661 0.125718 0.000000
vt 0.084646 0.789756 0.000000
vt 0.112865 0.805114 0.000000
vt 0.728816 0.997056 0.000000
vt 0.969708 0.819805 0.000000
vt 0.721883 0.983596 0.000000
vt 0.894625 0.322025 0.000000
vt 0.565703 0.919604 0.000000
vt 0.881788 0.223439 0.000000
vt 0.931784 0.366741 0.000000
vt 0.333197 0.923853 0.000000
vt 0.315495 0.963201 0.000000
vt 0.608436 0.746677 0.000000
vt 0.758476 0.984708 0.000000
vt 0.549614 0.322019 0.000000
vt 0.633968 0.321667 0.000000
vt 0.245441 0.644473 0.000000
vt 0.804514 0.963467 0.000000
vt 0.373123 0.825821 0.000000
vt 0.855505 0.182275 0.000000
vt 0.915342 0.321667 0.000000
vt 0.621921 0.403003 0.000000
vt 0.501591 0.983222 0.000000
vt 0.841030 0.971737 0.000000
vt 0.842170 0.960468 0.000000
vt 0.837911 0.964945 0.000000
vt 0.828631 0.971466 0.000000
vt 0.959887 0.046043 0.000000
vt 0.985182 0.061746 0.000000
vt 0.973203 0.023381 0.000000
vt 0.984543 0.025290 0.000000
vt 0.980684 0.046592 0.000000
vt 0.997691 0.019486 0.000000
vt 0.958399 0.848037 0.000000
vt 0.994893 0.848271 0.000000
vt 0.959166 0.854896 0.000000
vt 0.314959 0.091610 0.000000
vt 0.398134 0.092277 0.000000
vt 0.820502 0.929380 0.000000
vt 0.820883 0.937807 0.000000
vt 0.552693 0.154119 0.000000
vt 0.576254 0.117853 0.000000
vt 0.593360 0.193145 0.000000
vt 0.897817 0.961231 0.000000
vt 0.993879 0.677366 0.000000
vt 0.938853 0.678623 0.000000
vt 0.992082 0.665157 0.000000
vt 0.858866 0.928659 0.000000
vt 0.889592 0.947165 0.000000
vt 0.858482 0.948911 0.000000
vt 0.931511 0.382383 0.000000
vt 0.875296 0.383129 0.000000
vt 0.768025 0.948302 0.000000
vt 0.572341 0.787060 0.000000
# 182 texture coords

g Tree_6_AO
s off
f 44/9/1 2/10/2 3/13/3 
f 44/1/4 3/141/5 1/182/6 
f 1/4/7 7/104/8 4/105/9 
f 2/11/10 5/12/11 6/16/12 
f 6/102/13 3/13/14 2/10/15 
f 7/2/16 1/179/17 3/180/18 
f 8/5/19 5/14/20 4/151/21 
f 8/103/22 6/16/23 5/12/24 
f 8/123/25 4/105/26 7/104/27 
f 10/20/28 11/21/29 12/106/30 
f 10/23/31 12/24/32 13/25/33 
f 10/23/34 13/25/35 9/124/36 
f 9/26/37 14/36/38 15/125/39 
f 11/22/40 16/30/41 17/31/42 
f 17/31/43 12/128/44 11/22/45 
f 14/126/46 9/124/47 13/25/48 
f 18/32/49 16/34/50 15/35/51 
f 18/32/52 17/133/53 16/34/54 
f 18/127/55 15/125/56 14/36/57 
s 1
f 6/176/58 9/177/59 15/178/60 
s 2
f 8/8/61 10/162/62 9/163/63 
s 1
f 3/19/64 11/28/65 10/29/66 
s 2
f 3/19/67 16/167/68 11/28/69 
s 4
f 6/27/70 15/33/71 16/129/72 
s off
f 12/37/73 19/38/74 20/39/75 
f 12/37/76 22/40/77 19/38/78 
f 14/41/79 20/39/80 21/42/81 
f 17/152/82 23/153/83 22/40/84 
f 18/154/85 14/41/86 21/42/87 
f 20/107/88 19/130/89 24/131/90 
f 19/132/91 22/134/92 24/142/93 
f 21/43/94 20/108/95 24/110/96 
f 22/109/97 23/111/98 24/172/99 
f 23/112/100 21/146/101 24/181/102 
s 1
f 6/6/103 8/15/104 9/17/105 
s 2
f 8/8/106 7/164/107 10/162/108 
s 1
f 10/3/109 7/7/110 3/18/111 
s 4
f 16/167/112 3/19/113 6/168/114 
s off
f 20/39/115 13/155/116 12/37/117 
f 12/37/118 17/152/119 22/40/120 
f 14/41/121 13/155/122 20/39/123 
f 17/152/124 18/154/125 23/153/126 
f 21/42/127 23/153/128 18/154/129 
f 25/53/130 27/56/131 28/114/132 
f 25/44/133 28/143/134 26/144/135 
f 26/115/136 32/118/137 29/119/138 
f 27/55/139 30/121/140 31/145/141 
f 31/120/142 28/114/143 27/56/144 
f 32/113/145 26/165/146 28/166/147 
f 33/57/148 30/116/149 29/147/150 
f 33/59/151 31/117/152 30/122/153 
f 33/150/154 29/119/155 32/118/156 
f 35/63/157 36/64/158 37/136/159 
f 35/66/160 37/67/161 38/68/162 
f 35/66/163 38/68/164 34/137/165 
f 34/70/166 39/135/167 40/138/168 
f 36/65/169 41/73/170 42/74/171 
f 42/74/172 37/77/173 36/65/174 
f 39/148/175 34/137/176 38/68/177 
f 43/75/178 41/139/179 40/140/180 
f 43/78/181 42/74/182 41/73/183 
f 43/149/184 40/138/185 39/135/186 
s 1
f 31/62/187 34/71/188 40/72/189 
s 2
f 33/51/190 35/173/191 34/174/192 
s 1
f 28/76/193 36/169/194 35/170/195 
s 2
f 28/76/196 41/171/197 36/169/198 
s 4
f 31/62/199 40/72/200 41/171/201 
s off
f 37/80/202 44/82/203 1/84/204 
f 37/80/205 2/85/206 44/82/207 
f 39/69/208 1/79/209 4/81/210 
f 42/156/211 5/157/212 2/85/213 
f 43/83/214 39/69/215 4/81/216 
f 26/45/217 29/47/218 25/48/219 
f 29/47/220 30/52/221 27/54/222 
f 29/47/223 27/54/224 25/48/225 
s 1
f 31/49/226 33/58/227 34/60/228 
s 2
f 33/51/229 32/175/230 35/173/231 
s 1
f 35/46/232 32/50/233 28/61/234 
s 4
f 41/171/235 28/76/236 31/62/237 
s off
f 1/84/238 38/158/239 37/80/240 
f 37/80/241 42/156/242 2/85/243 
f 39/159/244 38/158/245 1/84/246 
f 42/156/247 43/160/248 5/157/249 
f 4/161/250 5/157/251 43/160/252 
s 2
f 45/86/253 49/87/254 52/94/255 
s 4
f 46/88/256 48/89/257 49/95/258 
s 8
f 48/90/259 47/91/260 50/97/261 
s 4
f 47/92/262 52/93/263 51/99/264 
s 2
f 45/86/265 46/100/266 49/87/267 
s 4
f 48/89/268 50/96/269 49/95/270 
s 8
f 47/91/271 51/98/272 50/97/273 
s 4
f 47/92/274 45/101/275 52/93/276 
# 0 polygons - 92 triangles

